<svg width="18" height="18" viewBox="0 0 18 18" fill="none" xmlns="http://www.w3.org/2000/svg">
<path d="M6.33333 16.3332C7.06971 16.3332 7.66667 15.7362 7.66667 14.9998C7.66667 14.2635 7.06971 13.6665 6.33333 13.6665C5.59695 13.6665 5 14.2635 5 14.9998C5 15.7362 5.59695 16.3332 6.33333 16.3332Z" stroke="white" stroke-width="1.8" stroke-linecap="round" stroke-linejoin="round"/>
<path d="M14.3333 16.3332C15.0697 16.3332 15.6667 15.7362 15.6667 14.9998C15.6667 14.2635 15.0697 13.6665 14.3333 13.6665C13.597 13.6665 13 14.2635 13 14.9998C13 15.7362 13.597 16.3332 14.3333 16.3332Z" stroke="white" stroke-width="1.8" stroke-linecap="round" stroke-linejoin="round"/>
<path d="M4.78008 4.99984H16.3334L15.2134 10.5932C15.1524 10.9001 14.9855 11.1758 14.7417 11.372C14.498 11.5683 14.1929 11.6725 13.8801 11.6665H6.83341C6.50787 11.6693 6.19256 11.5528 5.94695 11.3391C5.70134 11.1255 5.54239 10.8293 5.50008 10.5065L4.48675 2.8265C4.44473 2.50599 4.2877 2.21167 4.04488 1.99828C3.80207 1.7849 3.49 1.66699 3.16675 1.6665H1.66675" stroke="white" stroke-width="1.8" stroke-linecap="round" stroke-linejoin="round"/>
</svg>
